<svg width="61" height="72" viewBox="0 0 61 72" fill="none" xmlns="http://www.w3.org/2000/svg">
<path d="M37.1372 0.187195L32.0138 11.2026C31.4694 11.1706 30.9357 11.1172 30.3913 11.1172C13.8256 11.1172 0.333862 24.6089 0.333862 41.1746C0.333862 49.1907 3.47197 56.5236 8.61674 61.9245L4.34722 71.2321H13.9963L15.7895 67.3895C20.1124 69.8018 25.1078 71.2321 30.3913 71.2321C46.9571 71.2321 60.4488 57.7404 60.4488 41.1746C60.4488 30.6396 55.0158 21.3534 46.7863 15.9844V0.187195H37.1372ZM29.5374 16.5822L11.1785 56.4595C7.83756 52.2647 5.79886 46.9812 5.79886 41.1746C5.79886 27.8431 16.3126 17.0305 29.5374 16.5822ZM38.5888 18.0338V34.5142L46.7863 41.7724V22.9011C51.803 27.3948 54.9838 33.8844 54.9838 41.1746C54.9838 54.7838 44.0004 65.7671 30.3913 65.7671C25.887 65.7671 21.7135 64.5396 18.0951 62.4369L24.0724 49.3721H35.8563V54.8371L46.7863 45.3588L35.8563 35.7097V41.1746H27.8296L38.5888 18.0338ZM46.7863 49.0306L38.5888 56.118V57.5696H46.7863V49.0306Z" fill="black"/>
</svg>
